<?xml version="1.0" standalone="no"?>
<!DOCTYPE svg PUBLIC "-//W3C//DTD SVG 20010904//EN"
 "http://www.w3.org/TR/2001/REC-SVG-20010904/DTD/svg10.dtd">
<svg version="1.0" xmlns="http://www.w3.org/2000/svg"
 width="2421.000000pt" height="2421.000000pt" viewBox="0 0 2421.000000 2421.000000"
 preserveAspectRatio="xMidYMid meet">
<metadata>
Created by potrace 1.11, written by Peter Selinger 2001-2013
</metadata>
<g transform="translate(0.000000,2421.000000) scale(0.100000,-0.100000)"
fill="#000000" stroke="none">
<path d="M15568 20434 c-2 -1 -64 -5 -138 -9 -74 -4 -155 -8 -180 -10 -43 -2
-137 -11 -225 -20 -22 -2 -67 -7 -100 -10 -33 -3 -71 -8 -85 -11 -14 -2 -49
-7 -79 -10 -30 -3 -62 -7 -70 -9 -9 -1 -36 -6 -61 -10 -25 -3 -56 -8 -70 -10
-652 -102 -1417 -322 -1948 -561 -29 -13 -54 -24 -57 -24 -30 0 -694 -330
-736 -366 -8 -8 -19 -14 -23 -14 -5 0 -180 -101 -281 -163 -131 -80 -374 -241
-458 -303 -235 -172 -582 -443 -607 -474 -3 -4 -41 -37 -85 -75 -206 -177
-533 -505 -740 -740 -38 -44 -72 -82 -75 -85 -3 -3 -35 -41 -70 -85 -36 -44
-67 -82 -70 -85 -13 -12 -223 -284 -284 -368 -37 -52 -119 -171 -182 -265 -62
-95 -121 -182 -129 -194 l-16 -23 -52 38 c-101 74 -187 132 -196 132 -5 0 -11
4 -13 9 -4 11 -183 123 -368 230 -109 62 -439 221 -575 276 -38 15 -88 35
-110 45 -53 23 -376 131 -490 163 -261 75 -683 156 -895 173 -30 2 -64 6 -75
9 -114 25 -837 26 -1040 1 -16 -2 -61 -7 -98 -11 -37 -3 -76 -8 -85 -9 -9 -2
-57 -9 -107 -16 -100 -13 -130 -18 -130 -20 0 -1 -16 -3 -35 -6 -19 -2 -67
-11 -106 -20 -39 -8 -77 -16 -85 -18 -345 -63 -892 -253 -1262 -437 -248 -124
-392 -206 -607 -348 -211 -138 -378 -266 -609 -466 -145 -126 -393 -376 -521
-525 -12 -14 -31 -36 -43 -50 -12 -14 -50 -61 -86 -105 -35 -44 -68 -81 -73
-83 -4 -2 -8 -8 -8 -14 0 -5 -15 -28 -34 -51 -18 -23 -51 -67 -72 -97 -21 -30
-52 -75 -68 -98 -17 -24 -35 -51 -41 -61 -5 -9 -19 -30 -31 -46 -24 -34 -122
-197 -181 -300 -106 -185 -241 -468 -327 -688 -23 -59 -97 -264 -106 -292 -5
-20 -12 -41 -20 -65 -17 -47 -69 -235 -85 -305 -9 -38 -19 -77 -21 -85 -7 -27
-44 -204 -50 -235 -2 -16 -7 -37 -9 -45 -2 -8 -7 -37 -11 -65 -3 -27 -7 -57
-9 -65 -15 -81 -20 -123 -30 -220 -4 -36 -8 -76 -10 -88 -27 -167 -27 -916 -1
-1082 3 -14 7 -54 11 -90 3 -36 10 -92 15 -125 5 -33 12 -78 15 -100 3 -22 7
-49 9 -60 2 -11 11 -58 20 -105 9 -47 18 -94 20 -105 3 -11 12 -53 21 -94 28
-131 94 -372 136 -496 42 -121 81 -231 89 -250 5 -11 23 -56 40 -100 17 -44
40 -100 51 -125 110 -242 219 -454 325 -630 62 -103 237 -371 264 -403 5 -6
43 -55 82 -107 40 -52 75 -97 78 -100 3 -3 21 -25 40 -50 19 -25 37 -47 40
-50 3 -3 34 -39 70 -80 137 -159 324 -348 511 -516 74 -66 229 -191 342 -276
109 -81 411 -288 421 -288 2 0 34 -18 71 -41 126 -77 151 -90 370 -198 369
-183 657 -289 1115 -411 46 -12 255 -57 300 -64 19 -3 46 -8 60 -11 60 -12 77
-15 115 -20 22 -2 73 -9 113 -15 137 -19 179 -23 372 -37 196 -14 766 -6 870
12 14 2 52 6 85 9 65 6 77 7 240 31 87 13 241 42 320 59 6 1 37 8 70 15 114
24 380 100 540 154 394 134 752 302 1120 527 122 75 145 90 318 213 54 38 99
68 100 66 1 -2 12 -18 25 -36 12 -18 22 -34 22 -37 0 -11 221 -332 328 -476
144 -194 353 -452 457 -566 5 -6 51 -56 100 -110 282 -309 703 -699 1002 -927
38 -29 70 -54 73 -57 14 -15 251 -187 360 -262 872 -597 1868 -1030 2890
-1257 134 -30 368 -75 445 -86 22 -3 65 -10 95 -15 30 -5 75 -12 100 -15 25
-3 56 -7 70 -10 14 -2 50 -7 80 -10 30 -3 75 -8 100 -11 25 -3 61 -7 80 -9 19
-3 71 -7 115 -11 44 -3 96 -7 115 -9 279 -29 965 -24 1343 9 139 13 182 17
207 21 14 2 50 7 80 10 30 3 66 8 80 10 14 2 50 7 80 10 30 4 64 9 75 11 10 2
37 6 60 9 126 18 535 100 650 131 11 3 31 7 45 10 203 41 843 246 1085 349 17
7 71 29 120 50 228 95 296 127 550 255 568 287 1052 606 1560 1024 61 50 128
107 149 126 22 19 49 44 62 55 194 174 441 416 599 589 50 54 95 104 100 110
10 10 163 190 218 256 66 78 239 305 321 421 52 74 99 139 103 144 40 49 319
497 388 623 92 167 131 240 211 402 50 102 113 235 139 295 26 61 51 114 56
120 5 5 9 15 9 23 0 7 9 33 21 58 34 76 129 323 166 434 19 58 38 114 43 125
8 18 52 162 99 320 10 33 30 107 45 165 15 58 31 119 36 135 5 17 11 42 14 58
3 15 7 35 10 45 3 9 7 28 10 42 2 14 12 59 21 100 9 41 18 84 21 95 9 47 24
122 29 150 3 17 12 68 20 115 18 103 24 146 30 191 2 19 7 52 10 74 7 46 12
88 20 165 3 30 7 69 10 85 2 17 7 64 11 105 3 41 7 89 9 105 27 230 27 1123
-1 1360 -2 22 -7 67 -9 100 -8 101 -12 138 -31 285 -3 25 -7 56 -10 69 -2 13
-6 45 -10 70 -3 25 -8 57 -10 71 -2 14 -6 45 -10 70 -3 25 -9 61 -14 80 -4 19
-12 58 -16 85 -4 28 -9 57 -11 65 -2 8 -5 26 -7 40 -2 14 -11 55 -19 91 -9 37
-18 78 -21 90 -2 13 -12 56 -21 94 -9 39 -19 84 -22 100 -3 17 -11 48 -18 70
-8 22 -16 51 -18 65 -6 34 -60 220 -104 360 -20 63 -37 120 -39 125 -4 21
-117 332 -155 429 -42 106 -49 125 -67 166 -6 14 -39 88 -72 165 -70 161 -239
499 -329 659 -33 60 -61 111 -61 112 0 1 -34 57 -75 124 -41 67 -75 124 -75
126 0 5 -254 388 -271 407 -5 7 -50 68 -101 137 -304 416 -699 855 -1077 1200
-52 47 -99 90 -105 95 -74 68 -295 252 -416 345 -14 11 -43 34 -65 51 -88 68
-349 252 -502 352 -585 383 -1304 728 -1948 933 -60 20 -119 39 -130 44 -58
24 -603 164 -755 194 -14 3 -50 10 -80 15 -30 6 -66 13 -80 16 -52 10 -155 28
-234 40 -21 4 -47 8 -58 10 -11 3 -46 7 -77 11 -31 3 -64 8 -75 10 -10 2 -44
6 -75 9 -31 4 -67 8 -81 10 -14 2 -56 7 -95 10 -38 3 -86 8 -105 11 -19 2 -80
7 -135 10 -55 3 -122 8 -150 10 -58 5 -763 12 -767 8z"/>
</g>
</svg>
